/* XPM */
static char *_02f0aa92949453b959c7b68aa98a340d4DIdVBAr0iJ5Hpf[] = {
/* columns rows colors chars-per-pixel */
"32 32 7 1 ",
"  c None",
". c #B56E4B",
"X c #E6A271",
"o c #D38658",
"O c #FAD586",
"+ c #EFB171",
"@ c white",
/* pixels */
"                                ",
"................................",
"XXXXXXXXXXXXXXXXXXXXXXXXXXXXXXXX",
"XXXXXXXXXXXXXXXXXXXXXXXXXXXXXXXX",
"XXXXXXXXXXXXXXXXXXXXXXXXXXXXXXXX",
"XXXXXXXXXXXXXXXXXXXXXXXXXXXXXXXX",
"oooooooooooooooooooooooooooooooo",
"................................",
"XXXO.++++O.XXXXX.+++++.+++++.XXX",
"XXXO.++++O.XXXXX.+++++.+++++.XXX",
"XXXO.++++O.XXXXX.++++O.++++O.XXX",
"XXXO.+++++oXXXXXo+++++o++++OoXXX",
"XXXOo+++++oXXXXXo+++++o++++OoXXX",
"XXXXo+++++oXXXXXo+++++o++++OoXXX",
"XXXOo++++OoXXXXXo++++Oo++++OoXXX",
"XXXXo+++++.XXXXOo++++O.++++OoXXX",
"XXXXo++++O.XXXXXo++++Oo+++++oXXX",
"XXXXo++++OoXXXXXo++++Oo+++++oXXX",
"XXXX.++++OoXXXXOo+++++o++++OoXXX",
"XXXO.++++OoXXXXOo+++++.+++++oXXX",
"XXXO.+++++oXXXXOo+++++.++++O.XXX",
"XXXX.+++++.XXXXO.+++++.++++O.XXX",
"XXXX.+++++.XXXXO.+++++.++++O.XXX",
"XXXX.+++++.XXXXO.+++++.++++O.XXX",
"oooooooooooooooooooooooooooooooo",
"XXXXXXXXXXXXXXXXXXXXXXXXXXXXXXXX",
"XXXXXXXXXXXXXXXXXXXXXXXXXXXXXXXX",
"XXXXXXXXXXXXXXXXXXXXXXXXXXXXXXXX",
"XXXXXXXXXXXXXXXXXXXXXXXXXXXXXXXX",
"oooooooooooooooooooooooooooooooo",
"oooooooooooooooooooooooooooooooo",
"................................"
};
