/* XPM */
static char *aef771ead43f41f98e80a3a5405670d8IWeRtO9ZKonzCWdE[] = {
/* columns rows colors chars-per-pixel */
"32 32 11 1 ",
"  c None",
". c #E6A271",
"X c #B56E4B",
"o c #D38658",
"O c #A0654D",
"+ c #79CDC0",
"@ c #54AD9F",
"# c #91EDDF",
"$ c #BFFCF3",
"% c #58CBB9",
"& c white",
/* pixels */
"...............................X",
"...............................X",
"...............................X",
"...............................X",
"oooooooooooooooooooooooooooooooX",
"oooooooooooooooooooooooooooooooX",
"XXXXXXXXXXXXXXXXXXXXXXXXXXXXXXXX",
" XXXXXXX               XXXXXXX  ",
" XXoooXX               XXoooXX  ",
" XoooooX              OOoooooOO ",
" XoooooX              OXOoooO.O ",
" XoooooX               O.OOO.OXO",
" XoooooX               XOX..OXO.",
" XoooooX               XoOOOoX O",
" XoooooX               XoooooX O",
" +XoooX+               +XoooX+  ",
" @#XXX+@               @+XXX#@  ",
" @@##$@@               @@#$#@@  ",
" %@@@@@%               %@@@@@%  ",
" %%@@@%%               %%@@@%%  ",
"  %%%%%                 %%%%%   ",
"   %%%                   %%%    ",
"                                ",
"                                ",
"                                ",
"                                ",
"                                ",
"                                ",
"                                ",
"                                ",
"                                ",
"                                "
};
