/* XPM */
static char *e630c4788be5442c96410a2f6bf047ae2rHNnHxz4iCeHlXY[] = {
/* columns rows colors chars-per-pixel */
"45 45 8 1 ",
"  c None",
". c #D38658",
"X c #EFB171",
"o c #FAD586",
"O c #B56E4B",
"+ c #A0654D",
"@ c #4FAF7B",
"# c white",
/* pixels */
"                                             ",
"                                             ",
"                                             ",
"                                             ",
"                                             ",
"                                             ",
"                                             ",
"                                             ",
"                                             ",
"                                             ",
"                                             ",
"                                             ",
"                                             ",
"                                             ",
"          ..          ..          ..         ",
"         .XX.        .XX.        .XX.        ",
"        .XooX.      .XooX.      .XooX.       ",
"       .Xo..oX.    .Xo..oX.    .Xo..oX.      ",
"       .o....o.    .o....o.    .o....o.      ",
"     ..O......O....O......O....O......O..    ",
"    .XXO......OXXXXO......OXXXXO......OXX.   ",
"   .oooO......OooooO......OooooO......Oooo.  ",
"   O...O......O....O......O....O......O...O  ",
"   O...+O....O+....+O....O+....+O....O+...O  ",
"    O..+O....O+....+O....O+....+O....O+..O   ",
"     OO+O....O+OOOO+O....O+OOOO+O....O+OO    ",
"        O....O      O....O      O....O       ",
"    @@@@@O..O@@@@@@@@O..O@@@@@@@@O..O@@@@@   ",
"     @@@@O..O@@@@@@@@O..O@@@@@@@@O..O@@@@    ",
"        @@@@@@      @@@@@@      @@@@@@       ",
"                                             ",
"                                             ",
"                                             ",
"                                             ",
"                                             ",
"                                             ",
"                                             ",
"                                             ",
"                                             ",
"                                             ",
"                                             ",
"                                             ",
"                                             ",
"                                             ",
"                                             "
};
