/* XPM */
static char *_2e224711729464790684a587e4cc9ed44Y6AD1xTLvQwWe2[] = {
/* columns rows colors chars-per-pixel */
"32 32 4 1 ",
"  c #67E6D2",
". c #91EDDF",
"X c #BFFCF3",
"o c white",
/* pixels */
"                                ",
"                                ",
"                                ",
" ..X. .         ..X .           ",
"                                ",
"                                ",
"                                ",
"                           . .X.",
"                                ",
"                                ",
"                                ",
"                                ",
".X.                             ",
"                                ",
"                                ",
"                         . .X.. ",
"                                ",
"       . ..X                    ",
"                                ",
"                 ..X .          ",
"                                ",
"                                ",
"                                ",
"                                ",
"                                ",
"                     ....X .    ",
"                                ",
"                                ",
"..X .                           ",
"                                ",
"        X ...              ..X. ",
"                                "
};
